<svg xmlns="http://www.w3.org/2000/svg" xmlns:xlink="http://www.w3.org/1999/xlink" viewBox="0 0 512 512"><defs><linearGradient id="a" x1="91.364%" x2="10.445%" y1="7.855%" y2="100%"><stop offset="0%" stop-color="#31C3E8"/><stop offset="100%" stop-color="#002A61"/></linearGradient><path id="b" d="M.847.217h76.026V80.46H.847z"/></defs><path fill="url(#a)" d="M0 0h512v512H0z"/><path fill="#FFF" d="M95.5 212.627c-1.159 0-2.004-.243-2.539-.721-.535-.487-.801-1.344-.801-2.573v-87.995c0-1.232.266-2.087.801-2.573.535-.481 1.38-.724 2.54-.724h9.62c2.05 0 3.295.97 3.743 2.905l.934 3.425c2.673-2.55 5.901-4.57 9.69-6.067 3.786-1.495 7.639-2.242 11.558-2.242 8.64 0 15.478 3.125 20.514 9.367 5.03 6.244 7.55 14.686 7.55 25.33 0 7.302-1.25 13.676-3.741 19.13-2.496 5.452-5.88 9.65-10.158 12.597-4.275 2.947-9.175 4.419-14.7 4.419-3.653 0-7.127-.571-10.421-1.716-3.298-1.144-6.103-2.723-8.42-4.748v28.892c0 1.229-.246 2.086-.735 2.573-.491.478-1.36.721-2.606.721H95.501zm29.267-40.235c4.987 0 8.663-1.667 11.023-5.013 2.36-3.338 3.543-8.62 3.543-15.828 0-7.299-1.16-12.62-3.476-15.964-2.317-3.341-6.014-5.015-11.09-5.015-4.634 0-9.001 1.19-13.097 3.563v34.699c3.92 2.37 8.286 3.558 13.097 3.558zM175.277 185.452c-1.16 0-2.004-.263-2.54-.79-.535-.528-.8-1.363-.8-2.507v-60.813c0-1.231.265-2.091.8-2.575.536-.484 1.38-.727 2.54-.727h9.62c2.051 0 3.295.97 3.743 2.903l1.738 7.124c3.561-3.87 6.925-6.615 10.09-8.245a21.792 21.792 0 0110.088-2.44h1.872c1.244 0 2.137.243 2.672.724.533.484.802 1.342.802 2.573v11.082c0 1.142-.246 1.98-.735 2.507-.492.527-1.36.79-2.606.79a27.4 27.4 0 01-2.407-.132c-.98-.087-2.227-.131-3.74-.131-2.05 0-4.544.287-7.485.858-2.939.573-5.435 1.298-7.483 2.176v44.326c0 1.144-.246 1.979-.735 2.506-.491.528-1.36.791-2.606.791h-12.828zM234.243 107.62c-3.387 0-6.103-.924-8.15-2.77-2.051-1.848-3.075-4.355-3.075-7.521 0-3.165 1.024-5.67 3.074-7.52 2.048-1.845 4.764-2.769 8.151-2.769 3.385 0 6.1.924 8.151 2.77 2.048 1.848 3.075 4.354 3.075 7.519 0 3.166-1.027 5.673-3.075 7.52-2.05 1.847-4.766 2.77-8.15 2.77zm-6.415 77.834c-1.157 0-2.005-.264-2.537-.791-.535-.53-.804-1.364-.804-2.509V121.34c0-1.229.269-2.087.804-2.573.532-.481 1.38-.724 2.537-.724h12.83c1.247 0 2.115.243 2.604.724.49.486.737 1.344.737 2.573v60.815c0 1.145-.248 1.98-.737 2.509-.489.527-1.357.791-2.603.791h-12.831zM263.61 185.452c-1.16 0-2.005-.263-2.54-.79-.535-.528-.801-1.363-.801-2.507v-60.813c0-1.231.266-2.091.801-2.575s1.38-.727 2.54-.727h9.62c2.05 0 3.295.97 3.743 2.903l1.07 3.56c4.72-3.076 8.973-5.252 12.761-6.527a36.452 36.452 0 0111.692-1.913c8.018 0 13.676 2.814 16.973 8.44 4.541-2.987 8.819-5.14 12.828-6.463a39.521 39.521 0 0112.426-1.977c6.236 0 11.07 1.713 14.5 5.144 3.428 3.43 5.146 8.225 5.146 14.379v46.569c0 1.144-.246 1.979-.735 2.506-.492.528-1.36.791-2.606.791H348.2c-1.16 0-2.005-.263-2.54-.79-.535-.528-.801-1.363-.801-2.507v-42.348c0-5.98-2.719-8.967-8.154-8.967-4.81 0-9.666 1.142-14.564 3.428v47.887c0 1.144-.248 1.979-.737 2.506-.489.528-1.357.791-2.603.791H305.97c-1.157 0-2.005-.263-2.537-.79-.535-.528-.804-1.363-.804-2.507v-42.348c0-5.98-2.719-8.967-8.15-8.967-4.99 0-9.89 1.185-14.7 3.558v47.757c0 1.144-.246 1.979-.735 2.506-.492.528-1.36.791-2.606.791H263.61zM410.228 187.562c-10.89 0-19.174-2.514-25.833-9.2-4.37-4.393-8.486-12.534-8.486-26.496 0-11.257 3.612-19.858 9.492-26.105 5.88-6.244 14.859-9.172 23.345-9.172 10.598 0 16.883 2.375 21.693 7.124.791.779 5.625 5.714 5.625 13.637 0 2.727.084 5.553-1.81 9.513-1.283 2.68-3.226 4.363-3.738 4.826-7.885 7.12-23.33 6.646-28.554 6.354l-8.46-1.272c.552 5.785 2.196 10.332 5.785 12.915 3.374 2.427 7.078 3.45 14.64 3.45 3.792 0 8.853-.747 15.355-2.419.351-.094 1.035-.266 1.27-.3.154-.022.786-.094 1.231.057.712.238 1.516.906 1.516 2.816v6.07c0 1.408-.159 2.396-.56 2.97-.403.573-1.201 1.123-2.358 1.561-6.772 2.463-13.095 3.671-20.153 3.671m8.12-49.441c0-6.433-4.595-8.277-10.255-8.277-3.725 0-7.334 1.327-9.797 3.989-2.404 2.598-3.889 6.548-4.518 11.515 0 0 10.014 1.792 17.254.612 3.758-.612 7.317-2.673 7.317-7.839M329.81 322.56c-12.05 0-21.216-2.902-28.583-10.62-4.835-5.07-9.387-14.467-9.387-30.582 0-12.993 3.994-22.921 10.503-30.13 6.506-7.208 16.437-10.588 25.827-10.588 11.73 0 18.683 2.742 24.006 8.223.872.899 6.223 6.596 6.223 15.74 0 3.148.09 6.41-2.003 10.98-1.419 3.095-3.572 5.036-4.14 5.57-8.72 8.218-25.808 7.672-31.592 7.335l-9.362-1.469c.615 6.678 2.43 11.926 6.405 14.907 3.73 2.802 7.829 3.983 16.196 3.983 4.198 0 9.792-.862 16.99-2.792.388-.11 1.147-.307 1.405-.346.17-.026.87-.109 1.362.065.787.275 1.68 1.046 1.68 3.25v7.007c0 1.625-.179 2.765-.623 3.427-.442.662-1.329 1.297-2.61 1.803-7.488 2.842-14.488 4.237-22.297 4.237m8.985-57.067c0-7.425-5.084-9.553-11.35-9.553-4.119 0-8.11 1.53-10.84 4.604-2.66 2.999-4.3 7.558-4.997 13.29 0 0 11.081 2.07 19.092.707 4.158-.706 8.095-3.085 8.095-9.048M113.834 322.56c-.997 0-1.815-.125-2.46-.376a3.873 3.873 0 01-1.643-1.202c-.445-.548-.868-1.327-1.265-2.33l-25.503-66.878c-.297-.8-.546-1.505-.743-2.106-.206-.6-.3-1.149-.3-1.654 0-1.502.994-2.254 2.983-2.254h14.912c1.586 0 2.76.303 3.503.904.748.604 1.317 1.601 1.717 3.004l15.36 53.203 15.656-53.203c.4-1.403.971-2.4 1.717-3.004.746-.6 1.914-.904 3.503-.904h14.466c1.986 0 2.983.752 2.983 2.254 0 .505-.1 1.053-.3 1.654-.197.6-.446 1.307-.743 2.106l-25.5 66.878c-.403 1.003-.82 1.782-1.268 2.33-.449.551-.969.954-1.566 1.202-.597.25-1.442.376-2.534.376h-12.975zM181.759 233.475c-3.859 0-6.959-1.058-9.294-3.17-2.335-2.116-3.505-4.985-3.505-8.61 0-3.62 1.17-6.49 3.505-8.605 2.335-2.112 5.435-3.17 9.294-3.17 3.858 0 6.958 1.058 9.296 3.17 2.332 2.116 3.505 4.984 3.505 8.606 0 3.624-1.173 6.493-3.505 8.608-2.338 2.113-5.438 3.17-9.296 3.17zm-7.315 89.085c-1.319 0-2.282-.302-2.89-.905-.612-.607-.919-1.562-.919-2.872v-69.606c0-1.407.307-2.388.92-2.945.607-.55 1.57-.83 2.89-.83h14.628c1.421 0 2.41.28 2.968.83.56.557.84 1.538.84 2.945v69.606c0 1.31-.28 2.265-.84 2.872-.557.603-1.547.905-2.968.905h-14.629zM237.495 322.56c-6.688 0-12.493-1.674-17.427-5.027-4.934-3.347-8.715-7.998-11.333-13.95-2.623-5.946-3.935-12.821-3.935-20.619 0-12.399 3.034-22.324 9.1-29.775 6.061-7.445 14.082-11.174 24.056-11.174 8.119 0 15.165 2.25 21.13 6.75v-35.096c0-1.4.307-2.375.924-2.925.617-.547 1.592-.824 2.928-.824h14.807c1.435 0 2.437.277 3.007.824.564.55.848 1.525.848 2.925V317.16c0 1.3-.284 2.25-.848 2.85-.57.599-1.572.899-3.007.899h-12.34c-1.232 0-2.184-.248-2.854-.751-.665-.498-1.153-1.348-1.466-2.55l-.918-3.449c-6.379 5.603-13.933 8.4-22.672 8.4m7.404-16.5c4.933 0 9.657-1.397 14.186-4.197v-39.599c-4.422-2.497-9.51-3.749-15.268-3.749-5.45 0-9.51 1.977-12.18 5.923-2.68 3.953-4.012 9.925-4.012 17.924 0 7.998 1.412 13.947 4.242 17.85 2.825 3.9 7.167 5.848 13.032 5.848"/><g transform="translate(370.64 241.64)"><mask id="c" fill="#fff"><use xlink:href="#b"/></mask><path fill="#FFF" d="M38.86 80.46c-11.921 0-21.235-3.537-27.944-10.61C4.203 62.789.847 52.925.847 40.266c0-12.557 3.356-22.372 10.069-29.441C17.625 3.754 26.939.217 38.86.217c11.92 0 21.236 3.538 27.945 10.607 6.71 7.069 10.068 16.884 10.068 29.441 0 12.659-3.358 22.523-10.068 29.586-6.709 7.072-16.026 10.61-27.945 10.61m0-16.614c10.518 0 15.776-7.86 15.776-23.582 0-15.623-5.258-23.434-15.776-23.434-10.517 0-15.772 7.811-15.772 23.434 0 15.721 5.255 23.582 15.772 23.582" mask="url(#c)"/></g><path fill="#FFF" d="M77.656 351.695v1.083c.139.921.63 1.904 1.564 2.805 47.67 45.784 110.641 73.296 180.568 73.296 49.902 0 107.85-16.694 147.822-48.064 6.607-5.22.95-12.99-5.801-9.953-44.81 20.226-93.502 30.016-137.815 30.016-65.67 0-129.26-19.167-180.662-50.996-.927-.57-1.805-.816-2.58-.816-1.665 0-2.863 1.134-3.096 2.629"/><path fill="#FFF" d="M374.64 356.64c-1.423 1.062-2.17 2.28-2.304 3.318v.647c.167 1.2 1.298 2.005 3.292 1.754 12.864-1.641 41.552-5.281 46.661 1.674 5.115 6.938-5.68 35.548-10.503 48.294-1.447 3.838 1.677 5.425 4.958 2.484 21.453-19.003 26.99-58.845 22.587-64.592-2.096-2.752-11.94-5.33-24.128-5.33-13.03 0-28.743 2.944-40.563 11.75"/></svg>
