<svg xmlns="http://www.w3.org/2000/svg" xml:space="preserve" id="Calque_1" x="0" y="0" version="1.1" viewBox="0 0 480 450"><style>.st0{fill:#fff}</style><path d="M0 225v225h480V0H0v225z"/><g id="Calque_1-2"><path d="M100.2 162.8c5.6 2.4 9.9 6.1 12.3 10.5 1.1 2 2.3 3.6 2.8 3.6.8 0 6.7-3.9 7.7-5.1 1.1-1.2 11.9-6.7 17.5-8.9 8.6-3.2 22.1-3.3 28.6-.2 8.3 4.1 13.9 11.9 15.9 22.1.6 3.2 1 24.3 1 51.2v46h-33v-40c0-33.8-.2-40.6-1.5-43-4.1-8-13.3-6.5-28.2 4.7l-6.3 4.6V282H85v-37c0-40.2-.5-45.7-4.7-49-5.2-4.1-12.6-2-25 7l-6.2 4.5-.3 37-.3 37H32.3c-9 0-16.3-.3-16.3-.8V162.8l15.3.3 15.2.3v6.8c0 3.7.4 6.7.9 6.7.4 0 2.1-1.1 3.7-2.5 5.3-4.4 19.6-11.6 26.1-13 7.6-1.6 17.1-1.2 23 1.4zm270.3 4.3c5.1 7.8 16.3 22.2 22.8 29.3l6.5 7 1.8-2.2c5.9-6.7 19.4-23.3 21.4-26.3 1.3-1.9 2.7-3.7 3-4s1.6-2.2 3-4.2l2.5-3.8h18.8c12.4 0 18.7.4 18.7 1.1 0 1.1-6 10.3-11.8 17.9-1.9 2.5-4.3 5.8-5.5 7.4-4 5.3-11.8 15-15 18.6-1.8 2-5.1 5.7-7.4 8.3-2.4 2.5-4.3 5.2-4.3 5.9 0 .7 2 3.4 4.4 6 2.4 2.5 6.1 6.8 8.2 9.5 2.1 2.6 4.1 5 4.4 5.3 1.9 1.7 24.2 32.5 27.4 37.7.6 1-3.5 1.3-19.2 1.3h-19.9l-6.8-10.3c-6.4-9.5-21.4-28.9-23.4-30.1-1.5-1-13.9 13.9-25.2 30.3l-6.6 9.6-19.7.3c-19.6.2-19.7.2-18.6-1.8 3.6-6.7 30-41.4 41.4-54.4 3.2-3.6 3.2-3.9.4-6.8-1.3-1.3-5.2-5.7-8.8-9.8-3.6-4.1-6.7-7.7-7-8s-2.1-2.5-4-5-4.3-5.4-5.3-6.5c-2.2-2.4-16.8-23.5-17.4-25.3-.4-.9 3.8-1.2 19-1.2h19.4l2.8 4.2zm-104.9 30c-6.8-2.5-10.5-2.6-17.2-.3-18.8 6.5-24.7 30.5-10.9 44.7 4.9 4.9 9.3 7.1 16.5 8.1 10.3 1.4 22.3-5.4 27-15.3 2.8-5.9 3.1-16.7.5-22.6-2.4-5.8-9.3-12.1-15.9-14.6z" class="st0"/><path d="M307.5 162.9H292v15.3l-4.4-4.1c-5.7-5.2-10.8-8.4-17.7-11-6.5-2.4-19.9-3.5-27.4-2.2-23 3.8-41.6 21.9-48.1 46.8-1.8 6.7-1.7 22.9 0 30.4 5.1 21.4 22.8 40 43 45.4 6.6 1.8 22.6 1.8 29.2 0 6.9-1.8 14.3-5.9 20.1-11.2l4.8-4.2.3 6.9.3 6.9H323v-119h-15.5zM289 235.1c-2.9 7.8-9.6 15-17.5 18.9-6 2.9-6.9 3.1-15.7 2.7-7.9-.2-10.1-.7-14.7-3.2-11.6-6.1-18.3-16.7-18.5-29.6 0-4.1.5-9.5 1.3-12 3.7-11.3 13.8-20.7 25.1-23.1 1.9-.5 6.4-.6 10.1-.4 12.4.7 23.5 8.2 28.8 19.5 3.6 7.9 4.1 19.3 1.1 27.2z" class="st0"/></g></svg>
